<?xml version="1.0" encoding="UTF-8"?>
<svg version="1.1" xmlns="http://www.w3.org/2000/svg" width="643" height="637">
<path d="M0 0 C212.19 0 424.38 0 643 0 C643 210.21 643 420.42 643 637 C430.81 637 218.62 637 0 637 C0 426.79 0 216.58 0 0 Z " fill="#CFDCE0" transform="translate(0,0)"/>
<path d="M0 0 C1.34719347 1.11579318 2.63841829 2.29891415 3.91015625 3.5 C4.83828125 2.613125 5.76640625 1.72625 6.72265625 0.8125 C18.19989797 -9.01517864 32.46745235 -10.48425887 46.91015625 -9.5 C59.37668661 -7.98298847 73.54303995 -1.02564009 81.91015625 8.5 C82.5846873 9.76667662 83.25156323 11.03746391 83.91015625 12.3125 C84.99765376 14.18539082 84.99765376 14.18539082 86.91015625 15.5 C90.16974877 16.16967792 93.30762412 16.52704014 96.61547852 16.80517578 C110.46105371 18.03680356 121.10588811 25.46911481 129.98828125 35.84375 C136.77734026 45.22700229 141.39719165 55.8111504 140.91015625 67.5 C142.24626953 67.64115234 142.24626953 67.64115234 143.609375 67.78515625 C152.63366919 69.73953002 160.55367891 79.37168599 165.91015625 86.5 C173.53507427 99.43133849 177.09988072 112.80053531 173.66015625 127.625 C172.66811645 131.35832853 171.47144806 134.56467474 169.59765625 137.9375 C167.54580977 141.24116912 167.54580977 141.24116912 168.6171875 143.85546875 C170.50918641 147.7252067 172.47885983 151.54906736 174.47265625 155.3671875 C177.65849795 162.31024469 178.26750828 168.47980885 178.22265625 176 C178.2177417 176.97396729 178.21282715 177.94793457 178.20776367 178.95141602 C177.81710306 203.23047219 168.81346483 226.41334668 151.6875 243.75 C144.33942668 250.59265029 136.27316884 255.10706876 127.03515625 258.875 C126.39239746 259.13812988 125.74963867 259.40125977 125.08740234 259.67236328 C121.75803745 260.97416859 119.54764608 261.5 115.91015625 261.5 C115.86890625 262.5725 115.82765625 263.645 115.78515625 264.75 C114.40579796 275.30022695 107.69848092 284.59512708 99.91015625 291.5 C85.01736736 302.28700749 69.61087575 306.733094 51.41015625 306.5625 C46.70765625 306.5315625 46.70765625 306.5315625 41.91015625 306.5 C41.91015625 315.08 41.91015625 323.66 41.91015625 332.5 C49.69141469 332.7760586 49.69141469 332.7760586 56.74609375 330.16796875 C57.88727497 328.67425702 58.90516218 327.08853902 59.91015625 325.5 C64.47672286 322.49567986 69.65533656 323.00662647 74.91015625 323.5 C79.85632122 325.43545586 83.54547903 329.77064555 85.91015625 334.5 C86.4669059 340.45293853 86.45156743 345.47348091 82.91015625 350.5 C78.57137968 354.76847232 75.38679553 357.63678838 69.16015625 357.75 C63.80596363 357.69591725 60.31661163 356.40856806 56.09765625 353.0625 C54.91015625 351.5 54.91015625 351.5 53.91015625 347.5 C49.62015625 347.17 45.33015625 346.84 40.91015625 346.5 C40.93110352 348.26633789 40.95205078 350.03267578 40.97363281 351.85253906 C41.03816162 357.69184229 41.08410794 363.53113319 41.11740494 369.37068558 C41.13827037 372.91090072 41.16656751 376.45072974 41.21191406 379.99072266 C41.26373363 384.06156091 41.28310994 388.13199427 41.30078125 392.203125 C41.32142639 393.47303284 41.34207153 394.74294067 41.36334229 396.05133057 C41.36364441 397.23225281 41.36394653 398.41317505 41.36425781 399.62988281 C41.37314026 400.66912903 41.38202271 401.70837524 41.39117432 402.77911377 C40.78085075 406.23141856 39.67055578 407.39756735 36.91015625 409.5 C33.41015625 410.0625 33.41015625 410.0625 29.91015625 409.5 C27.473193 407.37543911 26.10743669 405.63518097 25.54544735 402.40141082 C25.39212584 399.74105279 25.37731267 397.10855538 25.40222168 394.44381714 C25.39598172 393.4223346 25.38974175 392.40085205 25.3833127 391.34841549 C25.36734012 387.9206825 25.38000436 384.49365642 25.39257812 381.06591797 C25.38715873 378.61014897 25.3800371 376.15438323 25.37133789 373.69862366 C25.35497226 367.71641811 25.35739584 361.73449054 25.36898845 355.75229578 C25.37802566 350.88693171 25.37924553 346.02162386 25.37489319 341.15625381 C25.37428026 340.46349155 25.37366732 339.77072928 25.37303582 339.05697421 C25.37175688 337.64951791 25.37046003 336.24206162 25.36914545 334.83460535 C25.3577369 321.63333161 25.37085499 308.43216893 25.39234692 295.23091342 C25.41019446 283.91853493 25.40713375 272.60632078 25.38867188 261.29394531 C25.36722901 248.14890054 25.35886052 235.00395334 25.37112093 221.85889351 C25.37239507 220.45480928 25.37365255 219.05072504 25.37489319 217.64664078 C25.37581884 216.61048742 25.37581884 216.61048742 25.37676319 215.55340167 C25.38020765 210.70037084 25.37440684 205.84740216 25.36497498 200.99438095 C25.3525342 194.4493226 25.36148958 187.90452502 25.384552 181.3594799 C25.38982665 178.96139094 25.38834674 176.56327583 25.37950134 174.16519737 C25.36851268 170.88247932 25.38235089 167.60074097 25.40222168 164.31808472 C25.39329879 163.37690855 25.38437591 162.43573238 25.37518263 161.46603572 C25.47798064 152.66398694 27.52899245 144.64873959 33.66015625 138.125 C40.83590721 131.6052412 46.67734672 128.35803268 56.42578125 128.40234375 C58.11622559 128.40609009 58.11622559 128.40609009 59.84082031 128.40991211 C61.26620117 128.41901611 62.69158203 128.42812012 64.16015625 128.4375 C68.69765625 128.458125 73.23515625 128.47875 77.91015625 128.5 C77.91015625 113.32 77.91015625 98.14 77.91015625 82.5 C76.59015625 81.84 75.27015625 81.18 73.91015625 80.5 C72.4609375 78.6953125 72.4609375 78.6953125 71.22265625 76.625 C70.80628906 75.94695312 70.38992188 75.26890625 69.9609375 74.5703125 C67.40786489 69.54009508 66.85808084 63.76443971 68.59375 58.37890625 C71.17194621 52.71971208 74.56173726 49.07442218 80.26953125 46.390625 C86.17797738 44.39783548 92.66943233 44.5610556 98.34765625 47.1875 C102.9704921 49.86288353 105.86805198 53.60066581 107.91015625 58.5 C108.82401594 65.06397293 108.86308597 70.92571542 105.22265625 76.625 C102.82502409 79.70686209 100.5944482 82.00636813 96.91015625 83.5 C95.92015625 83.5 94.93015625 83.5 93.91015625 83.5 C93.920149 84.56115776 93.920149 84.56115776 93.93034363 85.64375305 C93.99044322 92.30918896 94.03612464 98.9745493 94.06559277 105.64019489 C94.08125199 109.06713223 94.10249429 112.49384577 94.13647461 115.9206543 C94.17529139 119.85983608 94.18986341 123.79892709 94.203125 127.73828125 C94.21860886 128.96960281 94.23409271 130.20092438 94.25004578 131.46955872 C94.25027237 132.61051498 94.25049896 133.75147125 94.25073242 134.92700195 C94.26072517 136.43590752 94.26072517 136.43590752 94.2709198 137.97529602 C93.91015625 140.5 93.91015625 140.5 92.63964844 142.32702637 C90.54189469 143.74976181 89.41803973 143.86442792 86.89770508 143.84057617 C86.09710159 143.84034958 85.29649811 143.84012299 84.47163391 143.83988953 C83.6121666 143.82440567 82.75269928 143.80892181 81.8671875 143.79296875 C80.54179207 143.78660149 80.54179207 143.78660149 79.18962097 143.78010559 C76.36698964 143.76331043 73.54507184 143.72565697 70.72265625 143.6875 C68.8092551 143.67245423 66.89584276 143.65876564 64.98242188 143.64648438 C60.29139166 143.61340419 55.60089494 143.5616163 50.91015625 143.5 C50.63171875 144.12003906 50.35328125 144.74007812 50.06640625 145.37890625 C48.91015625 147.5 48.91015625 147.5 46.41015625 149.4375 C43.47358608 151.86017039 42.95873201 152.86236646 41.91015625 156.5 C41.58288359 159.94193766 41.53773983 163.37625955 41.49609375 166.83203125 C41.4767276 167.82377853 41.45736145 168.81552582 41.43740845 169.83732605 C41.37777172 172.9956307 41.3312907 176.1539721 41.28515625 179.3125 C41.24696185 181.45769792 41.20790927 183.60288075 41.16796875 185.74804688 C41.07208312 190.99857488 40.98799313 196.24917467 40.91015625 201.5 C44.54015625 201.5 48.17015625 201.5 51.91015625 201.5 C52.57015625 200.18 53.23015625 198.86 53.91015625 197.5 C58.91998192 193.11640254 61.82061783 192.13225484 68.375 192.2265625 C73.52011464 192.78150553 76.5750788 195.84265248 79.78515625 199.625 C82.7215463 204.02958507 82.68109504 208.38299971 81.91015625 213.5 C79.88511333 219.14880394 76.56388059 223.17313783 71.16015625 225.875 C66.03751869 226.86012261 61.33996613 227.05200147 56.8125 224.16015625 C54.37239216 222.1108665 52.34429793 220.36828336 50.91015625 217.5 C47.94015625 217.17 44.97015625 216.84 41.91015625 216.5 C41.58015625 240.59 41.25015625 264.68 40.91015625 289.5 C69.89785036 288.61336544 69.89785036 288.61336544 93.28515625 274.25 C96.7485495 269.85028241 98.80602491 264.64860457 100.91015625 259.5 C92.54841994 258.9628644 92.54841994 258.9628644 85.265625 261.984375 C84.3685135 263.77096302 83.63627348 265.63735146 82.91015625 267.5 C77.71783488 272.31239541 73.50583503 272.85374727 66.63671875 272.78125 C61.62513265 272.26429556 59.01384247 269.6982879 55.72265625 266.125 C52.23105297 261.06819524 50.21673002 257.00696271 50.42578125 250.80859375 C51.71017812 244.68699256 56.89826695 239.88641169 61.91015625 236.5 C67.72401101 234.56204841 73.83124401 234.47944308 79.34765625 237.1875 C81.88366361 239.47609201 83.98086505 241.68026671 85.91015625 244.5 C85.91015625 245.16 85.91015625 245.82 85.91015625 246.5 C108.57002893 245.59330453 128.07194716 243.97473976 144.66015625 226.875 C151.44660313 218.59130344 155.81363362 207.64539074 158.91015625 197.5 C159.13574219 196.76265625 159.36132812 196.0253125 159.59375 195.265625 C161.02284362 189.54925053 161.14337318 183.79991673 161.22265625 177.9375 C161.24038086 177.14601563 161.25810547 176.35453125 161.27636719 175.5390625 C161.26644525 167.56182215 159.08057805 160.82867934 154.84765625 154.0625 C154.08775391 152.82693359 154.08775391 152.82693359 153.3125 151.56640625 C151.93975579 149.4042483 151.93975579 149.4042483 149.91015625 147.5 C148.42033543 139.48633224 151.43627478 133.51310241 154.91015625 126.5 C157.87817286 118.72662315 158.19995674 110.17162839 155.34765625 102.3125 C150.77141123 92.34396626 143.9450803 85.22073569 133.66796875 81.24609375 C130.76346892 80.26539793 127.85600032 79.34736631 124.91015625 78.5 C124.89597656 77.41203125 124.88179688 76.3240625 124.8671875 75.203125 C124.53877404 62.90726893 122.65927133 52.39805704 113.78515625 43.1796875 C102.26876114 32.86291688 89.56687976 33.09370479 74.91015625 33.5 C74.61882812 32.85933594 74.3275 32.21867187 74.02734375 31.55859375 C68.82090594 20.57268252 62.79118139 14.27372634 51.46484375 9.4609375 C42.16690584 6.26196851 33.00005418 6.24697987 24.02734375 10.375 C18.25126966 13.44420542 14.3795201 17.43078904 11.91015625 23.5 C11.17910709 28.64449956 11.24878986 33.75530725 11.2978363 38.93731689 C11.29438701 40.51705043 11.28873193 42.09678042 11.28106838 43.67649913 C11.26634877 48.00631528 11.28260121 52.3355427 11.30392134 56.66531086 C11.32143125 61.33878978 11.30998243 66.01220729 11.3019104 70.68569946 C11.29171099 78.78000485 11.2992996 86.87413541 11.31857109 94.96842194 C11.34606921 106.67570271 11.34222689 118.38281435 11.32998527 130.09011349 C11.31059638 149.09069235 11.31053103 168.09121544 11.32543945 187.09179688 C11.32632559 188.22863846 11.32721172 189.36548005 11.32812471 190.53677139 C11.33175899 195.14357471 11.33547639 199.75037797 11.33929127 204.35718115 C11.34976043 217.04801548 11.35800135 229.73885052 11.36450195 242.4296875 C11.36509019 243.56635641 11.36567842 244.70302532 11.36628448 245.87413874 C11.37555537 264.80891218 11.36910522 283.74365228 11.35219151 302.67841983 C11.34258837 314.36088631 11.34779516 326.04317407 11.37195922 337.72562048 C11.38767662 345.72342254 11.38955596 353.72114823 11.38042598 361.71896031 C11.37568555 366.33721202 11.37768407 370.95521802 11.3970623 375.57343674 C11.41469531 379.79736213 11.41414221 384.02087205 11.39888323 388.24480304 C11.39665061 389.77625935 11.40126253 391.30774337 11.4132499 392.83915439 C11.42854727 394.91472435 11.41941075 396.98878412 11.40399837 399.06431961 C11.40518986 400.21888948 11.40638134 401.37345934 11.40760893 402.56301618 C10.80016007 406.14942259 9.77699758 407.32539223 6.91015625 409.5 C3.97265625 410.0625 3.97265625 410.0625 0.91015625 409.5 C-2.25250326 406.96651597 -3.89464757 405.46298247 -4.71034425 401.43881768 C-4.70823098 400.28462753 -4.70611771 399.13043739 -4.70394039 397.94127178 C-4.70960041 397.29294058 -4.71526042 396.64460939 -4.72109196 395.97663179 C-4.73400384 393.80056103 -4.71123147 391.6263344 -4.68870544 389.45036316 C-4.69071988 387.87607147 -4.69494656 386.30178131 -4.70119721 384.72750074 C-4.71207712 380.39861048 -4.69187205 376.07033278 -4.66676056 371.74152219 C-4.64518114 367.07406411 -4.65252152 362.40664454 -4.65661621 357.739151 C-4.66000247 349.64970137 -4.64577817 341.56043709 -4.62029839 333.47102928 C-4.58398182 321.76636425 -4.58084113 310.0618666 -4.58699346 298.35715524 C-4.59663561 279.35616245 -4.58838547 260.35522753 -4.56469727 241.35424805 C-4.56328651 240.2167592 -4.56187575 239.07927034 -4.56042225 237.90731213 C-4.54587522 226.37085883 -4.52934282 214.83440902 -4.51118278 203.29796086 C-4.50212582 197.54426262 -4.49329564 191.79056406 -4.48461914 186.03686523 C-4.48204058 184.33407203 -4.48204058 184.33407203 -4.47940993 182.59687897 C-4.45143637 163.67121668 -4.44679324 144.74562295 -4.4596315 125.81994516 C-4.46648075 114.14451875 -4.45263642 102.46946609 -4.41220785 90.79410587 C-4.38590049 82.79388709 -4.38085648 74.79383766 -4.39257126 66.79358479 C-4.39858383 62.17676444 -4.39467322 57.5604976 -4.36452675 52.94375992 C-4.33708523 48.71625565 -4.3372812 44.48968191 -4.35931898 40.26215438 C-4.36238619 38.73389275 -4.35530572 37.20556955 -4.33698373 35.67741468 C-4.25110843 28.06854919 -4.19086212 21.8829968 -9.50150067 15.93334848 C-16.96130864 9.20148777 -25.60407005 6.57753422 -35.46044922 6.87451172 C-41.0445854 7.25901117 -45.40227362 8.48790675 -50.08984375 11.5 C-50.77304687 11.9125 -51.45625 12.325 -52.16015625 12.75 C-59.77092233 17.84313624 -64.16877151 25.3988057 -68.08984375 33.5 C-68.72374023 33.4685791 -69.35763672 33.4371582 -70.01074219 33.40478516 C-89.15746771 32.43820111 -89.15746771 32.43820111 -105.40234375 41.515625 C-113.41341597 49.70341205 -116.92551132 59.53601399 -117.65234375 70.75 C-117.73613281 72.01328125 -117.81992188 73.2765625 -117.90625 74.578125 C-117.99712891 76.02445313 -117.99712891 76.02445313 -118.08984375 77.5 C-118.98445313 77.82871094 -119.8790625 78.15742188 -120.80078125 78.49609375 C-133.27054789 83.40157764 -142.16104845 90.10342801 -148.08984375 102.5 C-152.41795954 113.51702201 -149.64762215 122.98501266 -145.08984375 133.5 C-144.27386719 134.82257813 -144.27386719 134.82257813 -143.44140625 136.171875 C-140.96440286 140.43862072 -141.76972628 144.93142438 -142.71484375 149.5625 C-143.9635817 152.23025836 -145.02504379 153.67676066 -146.96484375 155.8125 C-153.05379685 162.52672457 -155.43887508 170.69940797 -155.3046875 179.66015625 C-154.00257768 196.87168056 -148.27704933 217.5889756 -135.08984375 229.5 C-123.42279265 238.83364088 -111.13695852 244.26235853 -96.08984375 245.5 C-94.98672852 245.5918457 -94.98672852 245.5918457 -93.86132812 245.68554688 C-84.44314055 246.70329877 -84.44314055 246.70329877 -75.78515625 244.00390625 C-74.36677819 242.23644551 -73.23758728 240.44891352 -72.08984375 238.5 C-67.63400199 235.65321221 -62.2110962 235.98869943 -57.08984375 236.5 C-51.56883773 238.30494428 -48.45853822 241.94622735 -45.08984375 246.5 C-43.08085569 250.51797611 -43.47565251 255.14326028 -44.08984375 259.5 C-46.39833764 264.54560066 -49.45170671 268.43225582 -54.08984375 271.5 C-58.4403404 272.95016555 -62.5431856 273.01070107 -67.08984375 272.5 C-72.40549533 269.84217421 -76.19220383 266.19291975 -78.08984375 260.5 C-83.03984375 260.17 -87.98984375 259.84 -93.08984375 259.5 C-87.96528848 272.11428989 -80.88486477 280.7564011 -68.21484375 286.375 C-60.47631172 289.16415289 -52.67850354 289.31539427 -44.53588867 289.37402344 C-41.0383395 289.55415473 -37.56498413 290.06560745 -34.08984375 290.5 C-34.08984375 266.74 -34.08984375 242.98 -34.08984375 218.5 C-37.05984375 218.17 -40.02984375 217.84 -43.08984375 217.5 C-43.46109375 218.6446875 -43.46109375 218.6446875 -43.83984375 219.8125 C-45.2229037 222.78607889 -46.31988858 223.82123929 -49.08984375 225.5 C-54.21801498 227.20939041 -60.18374956 227.71261484 -65.26171875 225.59375 C-69.24565568 222.93779204 -71.63241203 220.12948898 -73.08984375 215.5 C-73.99870739 208.84180791 -73.59806262 203.60958092 -69.57421875 198.09375 C-66.4046695 194.69065502 -63.34339607 193.6928542 -58.83984375 193 C-53.00543203 193.77792156 -47.28973417 196.30010958 -43.08984375 200.5 C-40.88733383 200.96006346 -40.88733383 200.96006346 -38.46484375 201.125 C-37.64757812 201.19976562 -36.8303125 201.27453125 -35.98828125 201.3515625 C-35.36179687 201.40054688 -34.7353125 201.44953125 -34.08984375 201.5 C-34.05522947 194.8282275 -34.07539821 188.15818458 -34.13256836 181.48657227 C-34.14565867 179.22000841 -34.1464879 176.95333765 -34.13452148 174.68676758 C-34.11943091 171.41642442 -34.14931711 168.1490102 -34.1875 164.87890625 C-34.16611717 163.37367149 -34.16611717 163.37367149 -34.14430237 161.83802795 C-34.27967285 155.16871517 -35.89409159 151.36943309 -40.09745789 146.19726562 C-43.85953761 142.99244034 -48.07487034 143.03634679 -52.83984375 142.9375 C-54.34164185 142.85532227 -54.34164185 142.85532227 -55.8737793 142.77148438 C-63.34309961 142.40761713 -70.84980581 142.34980868 -78.32519531 142.57202148 C-80.24634861 142.6178336 -82.16933922 142.5677576 -84.08984375 142.5 C-86.08984375 140.5 -86.08984375 140.5 -86.33035278 138.1335144 C-86.32591156 137.14312164 -86.32147034 136.15272888 -86.31689453 135.13232422 C-86.31674347 134.01131317 -86.31659241 132.89030212 -86.31643677 131.73532104 C-86.3061142 130.52071198 -86.29579163 129.30610291 -86.28515625 128.0546875 C-86.28232635 126.81453888 -86.27949646 125.57439026 -86.27658081 124.29666138 C-86.26726549 120.99875367 -86.24929265 117.70104028 -86.22717285 114.40319824 C-86.20671849 111.0383543 -86.19757998 107.67348193 -86.1875 104.30859375 C-86.16540894 97.70565277 -86.13190858 91.10284229 -86.08984375 84.5 C-87.03762695 84.20577148 -87.98541016 83.91154297 -88.96191406 83.60839844 C-94.62815946 81.6005344 -97.98480657 76.80616454 -100.52734375 71.5 C-101.73263703 65.07176919 -101.72390984 60.16663902 -98.5703125 54.39453125 C-95.36488095 50.29259378 -90.68711115 47.7986337 -86.08984375 45.5 C-79.88630436 44.97290188 -74.28782424 44.71965056 -69.08984375 48.5 C-64.24665187 53.14823288 -60.23085999 57.55503052 -60.03125 64.5546875 C-60.34933271 70.48539096 -62.24818464 75.91135162 -66.08984375 80.5 C-67.73984375 81.16 -69.38984375 81.82 -71.08984375 82.5 C-71.08984375 97.68 -71.08984375 112.86 -71.08984375 128.5 C-61.24779103 128.38182781 -61.24779103 128.38182781 -51.40625 128.22973633 C-43.05140183 128.17920297 -36.44466982 128.25343805 -29.48046875 133.4453125 C-28.7740625 134.16460937 -28.06765625 134.88390625 -27.33984375 135.625 C-26.623125 136.32882813 -25.90640625 137.03265625 -25.16796875 137.7578125 C-19.79069102 144.85339327 -18.50114826 151.52056592 -18.58190918 160.27412415 C-18.57566922 161.32438111 -18.56942925 162.37463807 -18.5630002 163.45672101 C-18.54711216 166.95746325 -18.55965839 170.45750519 -18.57226562 173.95825195 C-18.56684284 176.47522893 -18.55971931 178.99220273 -18.55102539 181.50917053 C-18.53470177 187.62348997 -18.53705903 193.73755221 -18.54867595 199.85187493 C-18.55772364 204.82017795 -18.55892854 209.78842594 -18.55458069 214.75673485 C-18.55396776 215.46485302 -18.55335482 216.1729712 -18.55272332 216.9025475 C-18.55144439 218.34118279 -18.55014753 219.77981806 -18.54883295 221.21845331 C-18.5374414 234.69088396 -18.55052059 248.16320553 -18.57203442 261.63561829 C-18.58992353 273.19634232 -18.58678368 284.75690578 -18.56835938 296.31762695 C-18.54696081 309.75085902 -18.53851952 323.18399579 -18.55080843 336.61724252 C-18.55208261 338.04894299 -18.5533401 339.48064348 -18.55458069 340.91234398 C-18.55550634 341.96893572 -18.55550634 341.96893572 -18.55645069 343.04687274 C-18.55990521 348.01194207 -18.55407351 352.97695092 -18.54466248 357.94201088 C-18.53228373 364.61927567 -18.54107544 371.29618947 -18.5642395 377.97344017 C-18.56954141 380.42768726 -18.56798767 382.88195985 -18.55918884 385.3361969 C-18.54830937 388.67807855 -18.56190565 392.01897569 -18.58190918 395.36079407 C-18.57298629 396.33908639 -18.56406341 397.31737871 -18.55487013 398.32531625 C-18.63089369 404.84219268 -18.63089369 404.84219268 -20.90283966 408.09854412 C-24.16168 410.18684426 -26.31108227 410.10730095 -30.08984375 409.5 C-32.63917418 406.97128826 -33.95066647 405.30008396 -34.57086182 401.73478699 C-34.56197937 400.73329117 -34.55309692 399.73179535 -34.54394531 398.69995117 C-34.54364319 397.55914597 -34.54334106 396.41834076 -34.54302979 395.2429657 C-34.52238464 394.02196671 -34.5017395 392.80096771 -34.48046875 391.54296875 C-34.47480896 390.28486893 -34.46914917 389.0267691 -34.46331787 387.73054504 C-34.44474419 384.39777215 -34.40885491 381.06610784 -34.36450195 377.73364258 C-34.32346496 374.32838485 -34.30528902 370.92301225 -34.28515625 367.51757812 C-34.24107479 360.84470759 -34.17203693 354.17250555 -34.08984375 347.5 C-38.04984375 347.5 -42.00984375 347.5 -46.08984375 347.5 C-46.74984375 349.15 -47.40984375 350.8 -48.08984375 352.5 C-52.04436381 356.60661698 -56.56619909 357.87968624 -62.15234375 358.125 C-66.85173821 357.89980834 -70.10785442 357.22515452 -73.6875 354.109375 C-77.90081235 349.27404161 -79.86883855 344.17834955 -79.53515625 337.73828125 C-78.41917983 332.12903135 -75.3691613 328.54434086 -71.02734375 325 C-66.03515064 322.54769461 -60.48919071 322.75861949 -55.08984375 323.5 C-49.87576766 325.92724232 -49.28759591 327.00561961 -47.08984375 332.5 C-42.79984375 332.5 -38.50984375 332.5 -34.08984375 332.5 C-34.08984375 323.92 -34.08984375 315.34 -34.08984375 306.5 C-37.92609375 306.5825 -41.76234375 306.665 -45.71484375 306.75 C-55.56654321 306.81987471 -63.91208825 306.3529821 -73.08984375 302.5 C-74.13011719 302.06429688 -75.17039062 301.62859375 -76.2421875 301.1796875 C-90.35389553 294.66659149 -102.07375853 284.01531971 -108.08984375 269.5 C-108.49150495 267.17745316 -108.84068649 264.84381659 -109.08984375 262.5 C-110.0334375 262.22027344 -110.97703125 261.94054687 -111.94921875 261.65234375 C-133.14026267 255.14098959 -150.33404969 241.64396732 -160.83984375 221.875 C-169.64406444 203.2451873 -175.53184903 178.70893028 -169.08984375 158.5 C-167.14064997 153.25466127 -165.20138498 148.16731184 -162.08984375 143.5 C-162.49104852 139.70447549 -163.86131354 136.322313 -165.15234375 132.75 C-169.37770168 119.05241112 -168.15606655 104.23116062 -161.51171875 91.46875 C-159.82272806 88.69941391 -158.03429785 86.09535188 -156.08984375 83.5 C-155.54328125 82.77039063 -154.99671875 82.04078125 -154.43359375 81.2890625 C-150.17800171 76.04986664 -145.05437781 71.69707018 -139.08984375 68.5 C-137.76984375 68.5 -136.44984375 68.5 -135.08984375 68.5 C-135.03376953 67.59121094 -135.03376953 67.59121094 -134.9765625 66.6640625 C-133.75055151 51.03843222 -127.38793608 39.34252409 -116.08984375 28.5 C-106.96473853 20.9961792 -97.89482997 16.57511092 -86.08984375 16.3125 C-80.59329083 16.13570215 -80.59329083 16.13570215 -76.52734375 12.75 C-76.05296875 11.6775 -75.57859375 10.605 -75.08984375 9.5 C-55.64290982 -12.16944066 -24.13119287 -17.32033283 0 0 Z " fill="#182C37" transform="translate(322.08984375,87.5)"/>
<path d="M0 0 C1.24761108 -0.00167175 2.49522217 -0.00334351 3.78063965 -0.00506592 C19.90016822 -0.00634977 35.93048883 0.31170779 52 1.625 C52.77267212 1.68812378 53.54534424 1.75124756 54.34143066 1.81628418 C87.45265469 4.61151541 87.45265469 4.61151541 93.45703125 9.6953125 C94.75 11.25 94.75 11.25 95.25 13.6875 C94.75 16.25 94.75 16.25 92.5 18.4375 C82.1391027 25.26627322 68.84302791 24.77567063 56.79858398 25.62768555 C54.21617769 25.81047017 51.63445558 26.00116375 49.05273438 26.19335938 C43.9533004 26.56883046 38.85210004 26.91300112 33.75 27.25 C32.60570526 27.32888458 32.60570526 27.32888458 31.43829346 27.40936279 C7.22540784 29.05183823 -17.0786084 28.30407182 -41.3125 27.5 C-42.58951782 27.4580954 -43.86653564 27.4161908 -45.18225098 27.37301636 C-60.67509434 26.8457255 -76.10190227 26.15631879 -91.5 24.3125 C-92.18119904 24.23318237 -92.86239807 24.15386475 -93.5642395 24.07214355 C-101.04572208 23.17547782 -107.91704264 22.325002 -114.1875 17.875 C-115.72312793 15.52639257 -115.66172214 13.99481427 -115.25 11.25 C-112.17215094 6.8762145 -106.72630782 5.99327482 -101.734375 5.10888672 C-86.35136369 2.63805776 -70.79818793 1.94103057 -55.25 1.25 C-54.28324341 1.20689697 -53.31648682 1.16379395 -52.32043457 1.11938477 C-34.87976567 0.36235623 -17.45670057 0.01255626 0 0 Z " fill="#57A1C0" transform="translate(336.25,522.75)"/>
<path d="M0 0 C5.11603939 2.27595669 8.15320147 5.44688232 10.8046875 10.3515625 C12.52606611 15.51569834 12.79566116 20.7631393 10.828125 25.90234375 C8.66503635 29.95647616 6.73618742 32.84326555 2.8046875 35.3515625 C2.1446875 35.3515625 1.4846875 35.3515625 0.8046875 35.3515625 C0.82748711 39.26951869 0.90479435 43.18455659 0.9921875 47.1015625 C0.99798828 48.21273437 1.00378906 49.32390625 1.00976562 50.46875 C0.98044698 56.80230883 0.98044698 56.80230883 4.2109375 61.92578125 C5.066875 62.39628906 5.9228125 62.86679688 6.8046875 63.3515625 C10.62207952 68.40702761 11.45204849 72.31894878 11.18359375 78.640625 C10.20326259 85.65454074 6.81013116 89.87995153 1.390625 94.22265625 C-3.03899789 97.3757622 -7.95462896 96.84022083 -13.1953125 96.3515625 C-18.30775797 95.0048277 -21.27334051 92.71269011 -24.1328125 88.2890625 C-27.12931158 82.99694039 -27.88700646 78.3624804 -27.1953125 72.3515625 C-25.36173694 66.47364313 -22.23492963 62.78279119 -17.1953125 59.3515625 C-16.2053125 59.3515625 -15.2153125 59.3515625 -14.1953125 59.3515625 C-14.1953125 51.7615625 -14.1953125 44.1715625 -14.1953125 36.3515625 C-15.8453125 35.6915625 -17.4953125 35.0315625 -19.1953125 34.3515625 C-24.69972501 28.5911308 -26.81369904 23.88949448 -26.63671875 15.984375 C-25.73219706 10.58926332 -22.66024826 6.19898847 -18.30859375 2.9375 C-16.4453125 1.8515625 -16.4453125 1.8515625 -13.1953125 0.3515625 C-9.15211778 -1.67003486 -4.2590617 -1.25801466 0 0 Z " fill="#182C38" transform="translate(294.1953125,108.6484375)"/>
<path d="M0 0 C4.70105099 4.15468187 6.76897765 8.65127277 7.375 14.8125 C7.21285218 20.18364648 5.21302845 24.71922578 1.46875 28.578125 C-0.56734645 30.3147955 -2.60338911 31.80169455 -5 33 C-5.33 40.26 -5.66 47.52 -6 55 C-4.02 55.66 -2.04 56.32 0 57 C4.45333254 60.74484782 6.56962928 64.03706314 7.40625 69.796875 C7.68316861 78.51981106 5.32746169 83.38116308 -0.56640625 89.671875 C-4.3080114 93.1382122 -8.77353287 93.43847418 -13.65625 93.31640625 C-18.7900665 92.62334102 -22.64222896 90.32107453 -26.3125 86.75 C-29.93511746 80.84647525 -31.63961164 76.05925237 -30.50390625 69.1015625 C-29.37106702 64.37700817 -28.09499494 61.69223818 -23.94140625 59.06640625 C-21.7033992 57.24847051 -21.06624193 56.29126435 -20.41821289 53.44189453 C-20.18511958 50.34504692 -20.11741176 47.29298796 -20.125 44.1875 C-20.104375 43.11306641 -20.08375 42.03863281 -20.0625 40.93164062 C-20.01548389 38.28698446 -19.9955509 35.6449879 -20 33 C-20.60714844 32.71382812 -21.21429688 32.42765625 -21.83984375 32.1328125 C-27.03646695 29.40763939 -29.73107924 25.46927806 -31.48828125 20.03515625 C-32.82689511 14.71135607 -32.3009466 11.11669343 -29.8125 6.3125 C-26.98196465 1.6373461 -24.17974534 -1.05228463 -19.125 -3.25 C-11.83540306 -4.99950327 -6.32161315 -3.85464216 0 0 Z " fill="#172B36" transform="translate(377,112)"/>
<path d="M0 0 C3.36535174 2.08591171 6.21387192 4.42774384 8 8 C8.50855325 13.10220638 8.99829917 18.23335221 6.125 22.6875 C5.42375 23.450625 4.7225 24.21375 4 25 C3.34 25 2.68 25 2 25 C2.04189453 26.03817871 2.08378906 27.07635742 2.12695312 28.14599609 C2.27302304 32.04060511 2.36404062 35.93497886 2.43945312 39.83154297 C2.47940141 41.50969299 2.53378403 43.18756964 2.60351562 44.86474609 C3.23979592 60.5752551 3.23979592 60.5752551 -1.78125 66.8515625 C-3.16531068 68.25658403 -4.57150979 69.64017457 -6 71 C-8.83498428 74.38276415 -10.95741437 77.61878375 -12.9375 81.5625 C-15.75218256 86.84358369 -18.18452037 90.06150679 -24 92 C-29.17259579 92.39789198 -33.71001505 92.08526315 -38 89 C-41.78050008 84.97801424 -44.3501942 80.91285275 -44.625 75.3125 C-44.18717494 69.60087313 -41.58468096 66.36356269 -37.3125 62.6875 C-31.93373845 59.94737619 -26.78167795 59.29308556 -20.9375 60.9375 C-19.4834375 61.4634375 -19.4834375 61.4634375 -18 62 C-14.09137916 57.93546176 -13.48093844 55.27066696 -13.43359375 49.6875 C-13.42739517 48.99615967 -13.42119659 48.30481934 -13.41481018 47.5925293 C-13.40773453 46.13689577 -13.41084672 44.68118093 -13.42358398 43.22558594 C-13.43746473 41.00564013 -13.40334211 38.78990355 -13.36523438 36.5703125 C-13.36428315 35.15104064 -13.36614221 33.73176354 -13.37109375 32.3125 C-13.37036865 31.02988281 -13.36964355 29.74726563 -13.36889648 28.42578125 C-14.15400162 24.16404225 -15.81194725 22.81632081 -19 20 C-20.19949471 14.94871171 -19.715843 9.62939021 -17.3125 5 C-12.410622 -1.35919309 -7.59579774 -2.17360309 0 0 Z " fill="#1C323D" transform="translate(461,224)"/>
<path d="M0 0 C6.52426287 5.48631196 6.52426287 5.48631196 7.09765625 10.125 C7.25648203 15.75986231 7.26672252 19.67870092 3.75 24.3125 C2.76 24.6425 1.77 24.9725 0.75 25.3125 C0.70038649 29.49339192 0.66417984 33.67412566 0.64013672 37.85522461 C0.63010854 39.27615343 0.61648259 40.69706178 0.59912109 42.11791992 C0.57473179 44.16590444 0.5634851 46.21361498 0.5546875 48.26171875 C0.54421387 49.49237061 0.53374023 50.72302246 0.52294922 51.9909668 C0.80060764 56.05284085 1.7231027 58.9121855 4.125 62.1875 C4.66125 62.55875 5.1975 62.93 5.75 63.3125 C7.08616775 62.99071648 8.41882464 62.65434945 9.75 62.3125 C15.6073519 61.85087407 20.92169304 61.52443666 26.375 63.875 C30.17957744 67.7796979 31.51676049 71.44658391 32.1875 76.8125 C31.55761752 81.85155982 30.05056329 85.51021539 26.0546875 88.640625 C20.83108378 91.64366844 15.66832224 92.23068827 9.75 91.3125 C3.69011065 88.9360728 1.72959811 83.99966829 -1.2421875 78.5625 C-4.05213793 74.01409775 -7.49635367 70.41103951 -11.2109375 66.58984375 C-14.91369541 62.45438807 -14.38180515 58.17814805 -14.34765625 52.92578125 C-14.3462413 52.10877243 -14.34482635 51.29176361 -14.34336853 50.44999695 C-14.33777294 47.84162732 -14.32522129 45.23334366 -14.3125 42.625 C-14.30748443 40.85612103 -14.30292162 39.08724072 -14.29882812 37.31835938 C-14.28780496 32.98303981 -14.27054338 28.64778448 -14.25 24.3125 C-15.18392578 24.17328125 -15.18392578 24.17328125 -16.13671875 24.03125 C-18.25 23.3125 -18.25 23.3125 -20.0625 19.8125 C-21.57359952 15.1539722 -21.68265758 11.0098803 -20.25 6.3125 C-15.73046394 -1.56728592 -8.12162938 -4.21699987 0 0 Z " fill="#1B303B" transform="translate(204.25,224.6875)"/>
<path d="M0 0 C4.51914084 3.36720298 7.40247378 7.01992135 9.1875 12.375 C9.71983598 20.36003968 7.53092183 26.46250678 2.68359375 32.86328125 C-1.44908262 37.03911874 -6.79463553 37.56715807 -12.4375 37.8125 C-18.13897746 37.63137572 -21.27430929 36.02384752 -25.24609375 31.87890625 C-30.30922511 26.12730377 -30.1582917 21.15800332 -30.08984375 13.765625 C-29.61021361 7.90197765 -27.02543473 5.53519844 -22.9375 1.625 C-15.89126395 -3.44828996 -7.82702123 -3.96477931 0 0 Z " fill="#1B303B" transform="translate(250.8125,240.625)"/>
<path d="M0 0 C5.9348175 3.51359215 10.97071262 8.24346579 12.80859375 15.09375 C13.41734173 21.54647862 12.24940324 26.95028323 8.26171875 32.0859375 C3.57305543 37.08579529 -0.19760567 38.80402736 -7.06640625 39.46875 C-12.39001581 39.30588623 -16.83206801 37.27389799 -20.734375 33.66796875 C-25.57114116 28.1787356 -26.71985263 23.00457258 -26.56640625 15.87890625 C-25.85615927 10.60384271 -23.35870972 6.9954758 -19.40625 3.52734375 C-13.577238 -0.81656965 -6.9759426 -2.88488179 0 0 Z " fill="#182D39" transform="translate(419.19140625,238.90625)"/>
<path d="M0 0 C4.82516824 2.99080676 8.81941293 6.31728835 10.42578125 11.90234375 C11.15470128 17.09685806 11.26473781 22.03578028 8.80078125 26.77734375 C5.20739887 31.50547847 1.32561037 35.31946277 -4.57421875 36.90234375 C-10.54064515 37.57778825 -14.70141475 36.21912631 -19.57421875 32.90234375 C-23.9356554 28.98145626 -26.20409918 24.57049309 -26.79296875 18.734375 C-27.05676537 12.17243413 -25.54455587 8.18378673 -21.19921875 3.15234375 C-15.28296298 -1.91873262 -7.2142088 -3.07616491 0 0 Z " fill="#172B36" transform="translate(456.57421875,176.09765625)"/>
<path d="M0 0 C3.74985178 2.72509471 6.27813434 5.45075376 7.625 9.9375 C8.64185201 17.02368742 7.90020591 23.08503365 3.625 28.9375 C-2.10873147 34.3845449 -6.69713635 35.4120766 -14.46484375 35.2421875 C-18.50927864 34.81874331 -20.46509207 33.77643457 -23.375 30.9375 C-27.84748194 24.86421168 -30.1529022 19.64313496 -29.375 11.9375 C-27.23148462 5.63304299 -22.64573392 1.88226071 -17.0625 -1.4375 C-11.04763786 -2.83630515 -5.49388505 -3.12175898 0 0 Z " fill="#182C37" transform="translate(213.375,177.0625)"/>
<path d="M0 0 C1.9375 1.1875 1.9375 1.1875 3 3 C3.56861912 6.73663996 3.24892554 8.54197701 1.4375 11.875 C-1 14 -1 14 -4.5 14.5625 C-8 14 -8 14 -10.4375 12.4375 C-12.61999672 9.03280512 -12.63734462 6.96569988 -12 3 C-8.31376997 -1.46815761 -5.41712863 -1.50475795 0 0 Z " fill="#E4F1F6" transform="translate(415,146)"/>
<path d="M0 0 C2.5 1.625 2.5 1.625 4 4 C4.61195145 7.6717087 4.48706506 9.28813568 2.375 12.375 C-0.75011169 14.51323431 -2.28162465 14.6829669 -6 14 C-9.40507055 11.48320873 -10.82464689 10.09595697 -11.5 5.875 C-11 3 -11 3 -10 1.125 C-6.77899264 -0.68681664 -3.54486449 -0.63479465 0 0 Z " fill="#E9F4F9" transform="translate(245,146)"/>
<path d="M0 0 C2 2 2 2 2.375 5.375 C2 9 2 9 0.375 11.4375 C-2.71685231 13.47161336 -4.36367425 13.60605429 -8 13 C-11.08884321 10.88658096 -11.87108765 9.68753254 -12.5625 6 C-12 3 -12 3 -9.9375 0.5625 C-6.13324885 -1.46103784 -4.10772726 -1.08506003 0 0 Z " fill="#E7F4F8" transform="translate(245,252)"/>
<path d="M0 0 C2.375 1.625 2.375 1.625 4 4 C4.49214954 7.37473969 4.33486373 9.29306546 2.875 12.375 C1 14 1 14 -1.875 14.5625 C-6.03884607 13.81300771 -7.47484455 12.34211751 -10 9 C-10.5625 6.4375 -10.5625 6.4375 -10 4 C-7.16979976 -0.02759265 -4.82432618 -0.80405436 0 0 Z " fill="#E8F2F7" transform="translate(415,251)"/>
<path d="M0 0 C3.37013879 0.67402776 4.51677007 1.7087875 6.5 4.5 C7.00299316 8.60777749 6.82749345 10.00875983 4.5 13.5 C1.1875 14.5 1.1875 14.5 -2.5 14.5 C-5.5 12.375 -5.5 12.375 -7.5 9.5 C-7.58143115 6.16132266 -6.75478518 4.83668042 -4.75 2.1875 C-2.5 0.5 -2.5 0.5 0 0 Z " fill="#E5EFF4" transform="translate(287.5,119.5)"/>
<path d="M0 0 C3.375 0.875 3.375 0.875 5.375 2.875 C5.8125 6.25 5.8125 6.25 5.375 9.875 C3.1875 12.375 3.1875 12.375 0.375 13.875 C-2.51981608 13.80607581 -4.03185358 13.26361317 -6.4375 11.6875 C-8.23472017 8.94437448 -8.08274125 7.07918874 -7.625 3.875 C-5.30290294 0.25252859 -4.34513693 -0.14983231 0 0 Z " fill="#E6F1F6" transform="translate(366.625,179.125)"/>
<path d="M0 0 C2.375 1.0625 2.375 1.0625 4 3 C4.43060657 6.44485259 4.63335287 8.84506242 2.9375 11.9375 C-0.11976176 13.6140629 -2.5906288 13.36528977 -6 13 C-7.9375 11.9375 -7.9375 11.9375 -9 10 C-9.63316583 4.09045226 -9.63316583 4.09045226 -7.875 1.0625 C-5.09808875 -0.51108304 -3.13770673 -0.38420899 0 0 Z " fill="#EFF6FA" transform="translate(289,179)"/>
<path d="M0 0 C1.9375 1.0625 1.9375 1.0625 3 3 C3.63316583 8.90954774 3.63316583 8.90954774 1.875 11.9375 C-0.93512264 13.52990283 -2.82764724 13.45319325 -6 13 C-8.375 11.375 -8.375 11.375 -10 9 C-10.45319325 5.82764724 -10.52990283 3.93512264 -8.9375 1.125 C-5.8930714 -0.64273274 -3.4368988 -0.36823916 0 0 Z " fill="#E8F3F7" transform="translate(368,121)"/>
<path d="M0 0 C1.8125 1.1875 1.8125 1.1875 3 3 C3.54955021 6.68983715 3.45269677 8.34610467 1.3125 11.4375 C-1 13 -1 13 -3.5625 12.9375 C-7.45423729 11.44067797 -7.45423729 11.44067797 -9 9 C-9.4375 5.5 -9.4375 5.5 -9 2 C-6.18112246 -1.3408919 -4.01115641 -1.4399023 0 0 Z " fill="#E3EEF4" transform="translate(206,187)"/>
<path d="M0 0 C4.55740433 1.32924293 4.55740433 1.32924293 6 3.875 C5.875 7.4375 5.875 7.4375 5 10.875 C1.75846834 13.0360211 0.76307099 13.51747553 -3 12.875 C-5.375 10.6875 -5.375 10.6875 -7 7.875 C-6.93073018 4.96566771 -6.35813951 3.44048344 -4.8125 1 C-3 -0.125 -3 -0.125 0 0 Z " fill="#E0ECF4" transform="translate(449,187.125)"/>
<path d="M0 0 C2.70767011 0.94768454 3.84153293 1.5531461 5.5 3.875 C6.4375 6.3125 6.4375 6.3125 6.5 8.875 C4.55558091 11.64205793 3.31100158 12.69252464 0 13.4375 C-2.5 12.875 -2.5 12.875 -4.875 10.6875 C-6.5 7.875 -6.5 7.875 -6.4375 5.25 C-5.0114953 1.63745476 -4.10867292 -0.20543365 0 0 Z " fill="#E3EDF2" transform="translate(392.5,334.125)"/>
<path d="M0 0 C1.8125 1.125 1.8125 1.125 3 3 C3.39769128 6.18153026 3.55198782 8.12844028 1.8125 10.875 C-0.72646491 12.45090926 -2.06402619 12.57287294 -5 12 C-7.375 9.75 -7.375 9.75 -9 7 C-8.92413554 4.4206084 -8.23664552 3.33130373 -6.75 1.25 C-4.33943503 -0.47183212 -2.89986477 -0.43497972 0 0 Z " fill="#E9F2F5" transform="translate(263,335)"/>
<path d="M0 0 C3.125 0.25 3.125 0.25 5 1.4375 C6.53159584 3.90507108 6.55322025 5.39519831 6.125 8.25 C4.9375 10.0625 4.9375 10.0625 3.125 11.25 C0.28003228 11.67674516 -1.23852369 11.61066991 -3.75 10.1875 C-5.53810335 7.10798867 -4.62092606 4.60666727 -3.875 1.25 C-2.875 0.25 -2.875 0.25 0 0 Z " fill="#E6F0F5" transform="translate(259.875,421.75)"/>
<path d="M0 0 C2.5625 0.3125 2.5625 0.3125 4.4375 1.4375 C5.5625 3.3125 5.5625 3.3125 5.375 6.375 C4.5625 9.3125 4.5625 9.3125 2.5625 11.3125 C0.125 11.6875 0.125 11.6875 -2.4375 11.3125 C-4.3125 9.625 -4.3125 9.625 -5.4375 7.3125 C-5.14609088 3.23277231 -4.43505664 0.56859701 0 0 Z " fill="#E3EFF3" transform="translate(391.4375,421.6875)"/>
<path d="M0 0 C3.29714793 0.32971479 4.6226839 0.6226839 7 3 C6.67028521 6.29714793 6.3773161 7.6226839 4 10 C1.5 9.8125 1.5 9.8125 -1 9 C-3 6 -3 6 -2.75 3.9375 C-2 2 -2 2 0 0 Z " fill="#DFECF0" transform="translate(263,292)"/>
<path d="M0 0 C1.9375 0.6875 1.9375 0.6875 3.9375 1.6875 C4.16482116 4.49112763 4.27831872 6.14936517 2.75 8.5625 C0.9375 9.6875 0.9375 9.6875 -1.6875 9.4375 C-4.0625 8.6875 -4.0625 8.6875 -5.0625 7.6875 C-5.3125 4.75 -5.3125 4.75 -5.0625 1.6875 C-2.0625 -0.3125 -2.0625 -0.3125 0 0 Z " fill="#E5F0F3" transform="translate(389.0625,291.3125)"/>
<path d="M0 0 C3.625 0.375 3.625 0.375 7 1 C7.125 3.875 7.125 3.875 7 7 C5 9 5 9 2.5 9.25 C0 9 0 9 -2 7 C-2.25 4.5 -2.25 4.5 -2 2 C-1.34 1.34 -0.68 0.68 0 0 Z " fill="#EEF4F7" transform="translate(195,232)"/>
<path d="M0 0 C1.1446875 0.3403125 1.1446875 0.3403125 2.3125 0.6875 C3 2.9375 3 2.9375 3.3125 5.6875 C1.875 8 1.875 8 0.3125 9.6875 C-4.5625 8.8125 -4.5625 8.8125 -5.6875 7.6875 C-5.9857732 4.85390458 -6.04352594 3.24964622 -4.5 0.8125 C-2.6875 -0.3125 -2.6875 -0.3125 0 0 Z " fill="#E9EFF2" transform="translate(456.6875,231.3125)"/>
<path d="M0 0 C0.94875 0.04125 1.8975 0.0825 2.875 0.125 C3.5625 2.4375 3.5625 2.4375 3.875 5.125 C2.75 7 2.75 7 0.875 8.125 C-1.8125 7.8125 -1.8125 7.8125 -4.125 7.125 C-4.75 4.75 -4.75 4.75 -5.125 2.125 C-3.125 0.125 -3.125 0.125 0 0 Z " fill="#E2ECF1" transform="translate(220.125,296.875)"/>
<path d="M0 0 C1.2065625 0.0309375 1.2065625 0.0309375 2.4375 0.0625 C2.81968767 1.71864657 3.15145102 3.38707024 3.4375 5.0625 C2.4375 6.0625 2.4375 6.0625 -0.125 6.125 C-1.3315625 6.0940625 -1.3315625 6.0940625 -2.5625 6.0625 C-2.94468767 4.40635343 -3.27645102 2.73792976 -3.5625 1.0625 C-2.5625 0.0625 -2.5625 0.0625 0 0 Z " fill="#D3DFE5" transform="translate(433.5625,295.9375)"/>
<path d="M0 0 C0.66 0 1.32 0 2 0 C1.875 2.1875 1.875 2.1875 1 5 C-0.44355489 6.2831599 -1.89516294 7.56274416 -3.43359375 8.73046875 C-5.66122634 10.53590664 -7.29752818 12.70821101 -9 15 C-8.87536673 10.8871022 -7.3412688 9.11168222 -4.5 6.375 C-3.8709375 5.80523437 -3.241875 5.23546875 -2.59375 4.6484375 C-0.75450663 2.98362891 -0.75450663 2.98362891 0 0 Z " fill="#E8F0F6" transform="translate(180,235)"/>
<path d="M0 0 C0.66 0 1.32 0 2 0 C2.33 3.3 2.66 6.6 3 10 C-1 8 -1 8 -2 7 C-2.1875 4.5625 -2.1875 4.5625 -2 2 C-1.34 1.34 -0.68 0.68 0 0 Z " fill="#458BA9" transform="translate(223,532)"/>
<path d="M0 0 C-1.23941385 3.71824156 -2.9233963 4.67378745 -6 7 C-6.66 7.66 -7.32 8.32 -8 9 C-7.70100785 5.41209425 -7.23013399 4.21833224 -4.5625 1.6875 C-2 0 -2 0 0 0 Z " fill="#19292F" transform="translate(193,224)"/>
<path d="M0 0 C1.85776765 3.13498292 2.20140476 5.37471432 2 9 C1.01 9.495 1.01 9.495 0 10 C-0.66 7.03 -1.32 4.06 -2 1 C-1.34 0.67 -0.68 0.34 0 0 Z " fill="#E8EEF5" transform="translate(470,229)"/>
<path d="M0 0 C2.26440734 4.52881469 2.090125 6.18528124 1 11 C0.01 11.495 0.01 11.495 -1 12 C-0.67 8.04 -0.34 4.08 0 0 Z " fill="#2E3D43" transform="translate(152,249)"/>
<path d="M0 0 C0.66 0.33 1.32 0.66 2 1 C0.02 2.98 -1.96 4.96 -4 7 C-4.66 6.67 -5.32 6.34 -6 6 C-4 4 -2 2 0 0 Z " fill="#203339" transform="translate(230,136)"/>
</svg>
